<?xml version="1.0" encoding="iso-8859-1"?>
<!-- Generator: Adobe Illustrator 19.0.0, SVG Export Plug-In . SVG Version: 6.00 Build 0)  -->
<svg version="1.1" id="Capa_1" xmlns="http://www.w3.org/2000/svg" xmlns:xlink="http://www.w3.org/1999/xlink" x="0px" y="0px"
	 viewBox="0 0 512 512" style="enable-background:new 0 0 512 512;" xml:space="preserve">
<g>
	<g>
		<path d="M504.502,246.628c-1.128-1.41-28.127-34.914-71.893-68.746c-25.848-19.981-52.231-35.935-78.416-47.417
			c-33.24-14.576-66.278-21.966-98.193-21.966c-31.916,0-64.952,7.391-98.193,21.966c-26.185,11.481-52.568,27.435-78.417,47.417
			c-43.765,33.833-70.764,67.337-71.892,68.747L0,256l7.499,9.372c1.128,1.41,28.126,34.914,71.892,68.746
			c25.848,19.981,52.231,35.935,78.417,47.417c33.24,14.576,66.277,21.966,98.193,21.966c31.915,0,64.952-7.391,98.193-21.966
			c26.185-11.481,52.568-27.435,78.416-47.417c43.765-33.833,70.765-67.337,71.893-68.746L512,256L504.502,246.628z
			 M413.701,310.812c-37.12,28.598-94.613,62.687-157.701,62.687c-63.09,0-120.581-34.089-157.701-62.687
			c-27.68-21.325-48.521-42.897-59.256-54.806c26.497-29.349,114.623-117.503,216.958-117.503
			c63.089,0,120.581,34.089,157.701,62.687c27.683,21.327,48.525,42.9,59.261,54.811
			C462.226,267.911,441.384,289.485,413.701,310.812z"/>
	</g>
</g>
<g>
	<g>
		<path d="M256,154.988c-55.698,0-101.012,45.315-101.012,101.012S200.303,357.012,256,357.012S357.013,311.698,357.013,256
			S311.698,154.988,256,154.988z M256,327.009c-39.154,0-71.009-31.855-71.009-71.009c0-39.154,31.855-71.009,71.009-71.009
			s71.009,31.855,71.009,71.009C327.009,295.154,295.154,327.009,256,327.009z"/>
	</g>
</g>
<g>
	<g>
		<path d="M256,209.661c-25.551,0-46.339,20.788-46.339,46.339c0,25.551,20.788,46.34,46.339,46.34s46.339-20.788,46.339-46.34
			C302.339,230.448,281.552,209.661,256,209.661z M256,272.336c-9.007,0-16.335-7.328-16.335-16.336
			c0-9.008,7.328-16.335,16.335-16.335s16.335,7.328,16.335,16.335C272.336,265.007,265.008,272.336,256,272.336z"/>
	</g>
</g>
<g>
</g>
<g>
</g>
<g>
</g>
<g>
</g>
<g>
</g>
<g>
</g>
<g>
</g>
<g>
</g>
<g>
</g>
<g>
</g>
<g>
</g>
<g>
</g>
<g>
</g>
<g>
</g>
<g>
</g>
</svg>
